<!-- Generator: Adobe Illustrator 16.0.0, SVG Export Plug-In . SVG Version: 6.00 Build 0)  -->
<!DOCTYPE svg PUBLIC "-//W3C//DTD SVG 1.1//EN" "http://www.w3.org/Graphics/SVG/1.1/DTD/svg11.dtd"[]>
<svg version="1.1" id="Layer_1" xmlns="http://www.w3.org/2000/svg" xmlns:xlink="http://www.w3.org/1999/xlink" x="0px" y="0px" width="24px" height="24px" viewBox="0 0 24 24" enable-background="new 0 0 24 24" xml:space="preserve">
<g>
	<defs>
		<rect id="SVGID_1_" x="5.37" y="0.184" width="9.962" height="15.739" />
	</defs>
	<clipPath id="SVGID_2_">
		<use xlink:href="#SVGID_1_" overflow="visible" />
	</clipPath>
	<path clip-path="url(#SVGID_2_)" fill="#349946" d="M5.9,0.185c0,0-3.368,10.249,6.854,11.74c0.028,0.004,0.057,0.008,0.087,0.013   c0,0,1.404-2.583-4.938-7.291c0,0,6.155,2.209,6.051,6.298c0,0-0.057,2.644-2.713,4.978c0,0,4.02-2.007,4.077-6.629   c0-0.033,0.002-0.065,0.002-0.099c0,0,0.516-3.599-4.814-5.561C10.506,3.634,7.842,2.952,5.9,0.185" />
</g>
<g>
	<path d="M5.633,23.634v-9.562h1.229v9.562H5.633z" />
	<path d="M13.312,23.634H8.024v-9.562h1.23v8.647h4.617L13.312,23.634z" />
	<path d="M16.646,23.757c-0.834,0-1.682-0.204-2.447-0.546v-1.216c0.725,0.409,1.613,0.807,2.461,0.807   c1.023,0,2.076-0.629,2.076-1.749c0-2.104-4.469-1.462-4.469-4.468c0-1.886,1.49-2.637,3.184-2.637   c0.697,0,1.463,0.109,2.105,0.423v1.176c-0.615-0.438-1.449-0.725-2.213-0.725c-1.025,0-1.805,0.52-1.805,1.612   c0,2.062,4.508,1.544,4.508,4.468C20.047,22.788,18.34,23.757,16.646,23.757z" />
</g>
</svg>